<svg width="1374" height="412" viewBox="0 0 1374 412" fill="none" xmlns="http://www.w3.org/2000/svg">
<g clip-path="url(#clip0)">
<path d="M1041.67 1012.14L-181.937 308.577L342.12 -595.779L1565.73 107.782L1041.67 1012.14Z" fill="url(#paint0_linear)"/>
<rect opacity="0.2" width="385.16" height="451.575" transform="matrix(0.708555 0.705656 0.708555 -0.705656 929.035 191.73)" fill="url(#paint1_linear)"/>
<rect opacity="0.2" width="302.51" height="712.764" transform="matrix(0.707107 0.707107 0.707107 -0.707107 835.915 412.085)" fill="url(#paint2_linear)"/>
<rect opacity="0.34" x="762.17" y="-79.1704" width="890.232" height="270.822" transform="rotate(135 762.17 -79.1704)" fill="url(#paint3_linear)"/>
<rect opacity="0.1" x="236.802" y="357" width="380.317" height="333.58" transform="rotate(135 236.802 357)" fill="#E20883"/>
<rect opacity="0.2" width="325.475" height="665.359" transform="matrix(0.707107 0.707107 0.707107 -0.707107 610.378 339.622)" fill="url(#paint4_linear)"/>
<rect opacity="0.05" width="537.849" height="318.246" transform="matrix(0.707107 0.707107 0.707107 -0.707107 1009.65 -63.3193)" fill="#F05A22"/>
</g>
<defs>
<linearGradient id="paint0_linear" x1="1041.67" y1="1012.14" x2="-179.552" y2="304.461" gradientUnits="userSpaceOnUse">
<stop offset="0.0894512" stop-color="#F99D1C"/>
<stop offset="0.093553" stop-color="#F99C1C"/>
<stop offset="0.216477" stop-color="#F4781F"/>
<stop offset="0.317354" stop-color="#F16221"/>
<stop offset="0.381572" stop-color="#F05A22"/>
<stop offset="0.648442" stop-color="#EE1D62"/>
<stop offset="0.763419" stop-color="#ED0080"/>
</linearGradient>
<linearGradient id="paint1_linear" x1="194.96" y1="524.766" x2="200.278" y2="0.0810977" gradientUnits="userSpaceOnUse">
<stop stop-color="#ECAE11"/>
<stop offset="1" stop-color="white" stop-opacity="0"/>
</linearGradient>
<linearGradient id="paint2_linear" x1="151.255" y1="-3.4945e-08" x2="148.492" y2="814.707" gradientUnits="userSpaceOnUse">
<stop stop-color="#F99D1C"/>
<stop offset="1" stop-color="#F99D1C" stop-opacity="0.2"/>
</linearGradient>
<linearGradient id="paint3_linear" x1="991.776" y1="69.5693" x2="1180.74" y2="-152.504" gradientUnits="userSpaceOnUse">
<stop stop-color="#A7005D" stop-opacity="0.51"/>
<stop offset="1" stop-color="#F99D1C"/>
</linearGradient>
<linearGradient id="paint4_linear" x1="140.135" y1="250.572" x2="9.55602" y2="356.68" gradientUnits="userSpaceOnUse">
<stop stop-color="#F05A22"/>
<stop offset="1" stop-color="#F05A22" stop-opacity="0"/>
</linearGradient>
<clipPath id="clip0">
<rect width="1374" height="412" fill="white"/>
</clipPath>
</defs>
</svg>
