<svg width="1600" height="581" viewBox="0 0 1600 581" fill="none" xmlns="http://www.w3.org/2000/svg">
<g clip-path="url(#clip0)">
<g clip-path="url(#clip1)">
<g clip-path="url(#clip2)">
<rect width="1600" height="781" transform="translate(0 -39)" fill="white"/>
<rect opacity="0.5" width="2550.67" height="572.58" transform="matrix(-0.7138 0.700349 -0.7138 -0.700349 2231 -808.023)" fill="url(#paint0_linear)"/>
<rect opacity="0.5" width="1989.12" height="572.58" transform="matrix(-0.7138 0.700349 -0.7138 -0.700349 2566 -834.675)" fill="url(#paint1_linear)"/>
<rect opacity="0.5" width="2448.16" height="572.58" transform="matrix(-0.7138 0.700349 -0.7138 -0.700349 2107 -596.906)" fill="url(#paint2_linear)"/>
<rect opacity="0.5" width="1088.32" height="287.306" transform="matrix(-0.7138 0.700349 -0.7138 -0.700349 2429 -424.558)" fill="url(#paint3_linear)"/>
<g opacity="0.5">
<rect width="2438.84" height="572.58" transform="matrix(-0.7138 0.700349 -0.7138 -0.700349 1577 -1095.99)" fill="url(#paint4_linear)"/>
<rect width="2438.84" height="572.58" transform="matrix(-0.7138 0.700349 -0.7138 -0.700349 1577 -1095.99)" fill="url(#paint5_linear)"/>
</g>
<rect opacity="0.5" width="802.338" height="572.58" transform="matrix(-0.7138 0.700349 -0.7138 -0.700349 860 155.436)" fill="url(#paint6_linear)"/>
<rect opacity="0.4" width="998.474" height="263.379" transform="matrix(-0.7138 0.700349 -0.7138 -0.700349 1371.71 22.1147)" fill="url(#paint7_linear)"/>
<rect opacity="0.5" width="1278.79" height="368.408" transform="matrix(-0.7138 0.700349 -0.7138 -0.700349 1414.77 -283.337)" fill="url(#paint8_linear)"/>
</g>
<rect y="406.445" width="1600" height="335.555" fill="url(#paint9_linear)"/>
<mask id="mask0" mask-type="alpha" maskUnits="userSpaceOnUse" x="360" y="-342" width="1471" height="1444">
<path d="M360.178 747.712L1469.84 -341.043L1830.84 13.1542L721.178 1101.91L360.178 747.712Z" fill="#363C44"/>
</mask>
<g mask="url(#mask0)">
<path d="M948.159 170.327L1380.74 -254.105L1746.15 99.4539L1313.57 523.886L948.159 170.327Z" fill="url(#paint10_linear)"/>
<rect opacity="0.1" width="734.343" height="269.778" transform="matrix(0.7138 -0.700349 0.7138 0.700349 1117.05 344.583)" fill="url(#paint11_linear)"/>
</g>
</g>
</g>
<defs>
<linearGradient id="paint0_linear" x1="1275.34" y1="0" x2="1275.34" y2="572.58" gradientUnits="userSpaceOnUse">
<stop stop-color="white"/>
<stop offset="1" stop-color="white" stop-opacity="0"/>
</linearGradient>
<linearGradient id="paint1_linear" x1="1246.73" y1="-12.4936" x2="1670.52" y2="433.71" gradientUnits="userSpaceOnUse">
<stop stop-color="#D5DCE5"/>
<stop offset="1" stop-color="#D5DCE5" stop-opacity="0"/>
</linearGradient>
<linearGradient id="paint2_linear" x1="1224.08" y1="8.05227e-05" x2="1857.39" y2="397.794" gradientUnits="userSpaceOnUse">
<stop stop-color="#D5DCE5"/>
<stop offset="1" stop-color="#D5DCE5" stop-opacity="0"/>
</linearGradient>
<linearGradient id="paint3_linear" x1="879.577" y1="7.84344" x2="746.957" y2="153.21" gradientUnits="userSpaceOnUse">
<stop stop-color="white"/>
<stop offset="1" stop-color="white" stop-opacity="0"/>
</linearGradient>
<linearGradient id="paint4_linear" x1="1219.42" y1="0" x2="1219.42" y2="572.58" gradientUnits="userSpaceOnUse">
<stop stop-color="white"/>
<stop offset="1" stop-color="white" stop-opacity="0"/>
</linearGradient>
<linearGradient id="paint5_linear" x1="1219.42" y1="0" x2="1219.42" y2="572.58" gradientUnits="userSpaceOnUse">
<stop stop-color="white"/>
<stop offset="1" stop-color="white" stop-opacity="0"/>
</linearGradient>
<linearGradient id="paint6_linear" x1="502.885" y1="-12.4935" x2="438.539" y2="354.975" gradientUnits="userSpaceOnUse">
<stop stop-color="#D5DCE5"/>
<stop offset="1" stop-color="#D5DCE5" stop-opacity="0"/>
</linearGradient>
<linearGradient id="paint7_linear" x1="360.46" y1="78.4533" x2="822.449" y2="242.912" gradientUnits="userSpaceOnUse">
<stop stop-color="#D5DCE5"/>
<stop offset="1" stop-color="#D5DCE5" stop-opacity="0"/>
</linearGradient>
<linearGradient id="paint8_linear" x1="575.681" y1="120.96" x2="351.866" y2="256.511" gradientUnits="userSpaceOnUse">
<stop stop-color="white"/>
<stop offset="1" stop-color="white" stop-opacity="0"/>
</linearGradient>
<linearGradient id="paint9_linear" x1="861.624" y1="789.709" x2="879.818" y2="456.252" gradientUnits="userSpaceOnUse">
<stop offset="0.219325" stop-color="white"/>
<stop offset="1" stop-color="white" stop-opacity="0"/>
</linearGradient>
<linearGradient id="paint10_linear" x1="1192" y1="470" x2="1433.34" y2="-66.6728" gradientUnits="userSpaceOnUse">
<stop offset="0.0894512" stop-color="#F99D1C"/>
<stop offset="0.093553" stop-color="#F99C1C"/>
<stop offset="0.216477" stop-color="#F4781F"/>
<stop offset="0.317354" stop-color="#F16221"/>
<stop offset="0.412467" stop-color="#F05A22"/>
<stop offset="0.713676" stop-color="#EE1D62"/>
<stop offset="0.867428" stop-color="#ED0080"/>
</linearGradient>
<linearGradient id="paint11_linear" x1="367.171" y1="0" x2="367.171" y2="269.778" gradientUnits="userSpaceOnUse">
<stop stop-color="white"/>
<stop offset="1" stop-color="white" stop-opacity="0"/>
</linearGradient>
<clipPath id="clip0">
<rect width="1600" height="581" fill="white"/>
</clipPath>
<clipPath id="clip1">
<rect width="1600" height="781" fill="white" transform="translate(0 -39)"/>
</clipPath>
<clipPath id="clip2">
<rect width="1600" height="781" fill="white" transform="translate(0 -39)"/>
</clipPath>
</defs>
</svg>
