<svg width="1440" height="377" viewBox="0 0 1440 377" fill="none" xmlns="http://www.w3.org/2000/svg">
<path d="M1514 34.209C503.5 332 640 -118 -6.19934 31.5704V255.031C570.5 185 654 351.031 1513.91 199.989L1514 34.209Z" fill="#F6F7FB"/>
<g style="mix-blend-mode:multiply" opacity="0.18">
<path d="M1514 104.88V199.965C615.5 309 624 174.5 -6.10791 247.007V102.194C486.976 35.6588 661.5 317 1514 104.88Z" fill="#D3D3D9"/>
</g>
<path d="M-61 60.0557C770.965 461.051 882.088 -56.1378 1459.2 57.3933V376.83C814 57.3933 771.147 626.784 -60.9086 225.812L-61 60.0557Z" fill="url(#paint0_linear)"/>
<g style="mix-blend-mode:multiply" opacity="0.28">
<path d="M1459.2 141.163V376.83C801.5 57.9161 771.147 626.784 -60.9086 225.812V113.684C800.679 482.113 882.088 27.6557 1459.2 141.163Z" fill="url(#paint1_linear)"/>
</g>
<g style="mix-blend-mode:multiply" opacity="0.14">
<path d="M1459.2 57.3933V90.6729C882.179 -22.8581 771.147 494.331 -60.9086 93.3353V60.0557C770.965 461.051 882.088 -56.1378 1459.2 57.3933Z" fill="url(#paint2_linear)"/>
</g>
<defs>
<linearGradient id="paint0_linear" x1="1886.92" y1="185.949" x2="-28.3415" y2="185.949" gradientUnits="userSpaceOnUse">
<stop stop-color="#E555AC"/>
<stop offset="1" stop-color="#9043C6"/>
</linearGradient>
<linearGradient id="paint1_linear" x1="1886.89" y1="227.398" x2="-28.2521" y2="227.398" gradientUnits="userSpaceOnUse">
<stop stop-color="#E555AC"/>
<stop offset="1" stop-color="#9043C6"/>
</linearGradient>
<linearGradient id="paint2_linear" x1="1886.89" y1="130.417" x2="-28.2521" y2="130.417" gradientUnits="userSpaceOnUse">
<stop stop-color="#E555AC"/>
<stop offset="1" stop-color="#9043C6"/>
</linearGradient>
</defs>
</svg>
